REM DIRINDEX 1\2,1\3,1\4,1\5,1\6
REM DIRNAME cjc091,folder01,folder02,folder03,folder04,folder05
TITLE ""
FILE "CD2-32.mp3" MP3
  TRACK 01 AUDIO
    TITLE "6:cjc091_2066"
    INDEX 01 00:00:00
  TRACK 02 AUDIO
    TITLE "0:"
    INDEX 01 00:01:19
  TRACK 03 AUDIO
    TITLE "6:cjc091_2067"
    INDEX 01 00:01:44
  TRACK 04 AUDIO
    TITLE "0:"
    INDEX 01 00:03:57
  TRACK 05 AUDIO
    TITLE "2:cjc091_2068"
    INDEX 01 00:05:03
  TRACK 06 AUDIO
    TITLE "0:"
    INDEX 01 00:06:67
  TRACK 07 AUDIO
    TITLE "3:cjc091_2069"
    INDEX 01 00:07:05
  TRACK 08 AUDIO
    TITLE "0:"
    INDEX 01 00:08:70
  TRACK 09 AUDIO
    TITLE "4:cjc091_2070"
    INDEX 01 00:09:06
  TRACK 10 AUDIO
    TITLE "0:"
    INDEX 01 00:14:25
  TRACK 11 AUDIO
    TITLE "2:cjc091_2071"
    INDEX 01 00:15:36
  TRACK 12 AUDIO
    TITLE "0:"
    INDEX 01 00:17:00
  TRACK 13 AUDIO
    TITLE "3:cjc091_2072"
    INDEX 01 00:17:18
  TRACK 14 AUDIO
    TITLE "0:"
    INDEX 01 00:19:22
  TRACK 15 AUDIO
    TITLE "4:cjc091_2073"
    INDEX 01 00:19:38
  TRACK 16 AUDIO
    TITLE "0:"
    INDEX 01 00:22:03
  TRACK 17 AUDIO
    TITLE "2:cjc091_2074"
    INDEX 01 00:23:12
  TRACK 18 AUDIO
    TITLE "0:"
    INDEX 01 00:24:39
  TRACK 19 AUDIO
    TITLE "3:cjc091_2075"
    INDEX 01 00:24:45
  TRACK 20 AUDIO
    TITLE "0:"
    INDEX 01 00:25:54
  TRACK 21 AUDIO
    TITLE "4:cjc091_2076"
    INDEX 01 00:25:72
  TRACK 22 AUDIO
    TITLE "0:"
    INDEX 01 00:29:01
  TRACK 23 AUDIO
    TITLE "2:cjc091_2077"
    INDEX 01 00:30:05
  TRACK 24 AUDIO
    TITLE "0:"
    INDEX 01 00:31:57
  TRACK 25 AUDIO
    TITLE "3:cjc091_2078"
    INDEX 01 00:31:71
  TRACK 26 AUDIO
    TITLE "0:"
    INDEX 01 00:33:58
  TRACK 27 AUDIO
    TITLE "4:cjc091_2079"
    INDEX 01 00:34:00
  TRACK 28 AUDIO
    TITLE "0:"
    INDEX 01 00:37:16
  TRACK 29 AUDIO
    TITLE "2:cjc091_2080"
    INDEX 01 00:38:20
  TRACK 30 AUDIO
    TITLE "0:"
    INDEX 01 00:39:52
  TRACK 31 AUDIO
    TITLE "3:cjc091_2081"
    INDEX 01 00:39:62
  TRACK 32 AUDIO
    TITLE "0:"
    INDEX 01 00:41:51
  TRACK 33 AUDIO
    TITLE "4:cjc091_2082"
    INDEX 01 00:41:65
  TRACK 34 AUDIO
    TITLE "0:"
    INDEX 01 00:45:63
  TRACK 35 AUDIO
    TITLE "2:cjc091_2083"
    INDEX 01 00:46:72
  TRACK 36 AUDIO
    TITLE "0:"
    INDEX 01 00:48:34
  TRACK 37 AUDIO
    TITLE "3:cjc091_2084"
    INDEX 01 00:48:51
  TRACK 38 AUDIO
    TITLE "0:"
    INDEX 01 00:50:27
  TRACK 39 AUDIO
    TITLE "4:cjc091_2085"
    INDEX 01 00:50:42
  TRACK 40 AUDIO
    TITLE "0:"
    INDEX 01 00:53:31
  TRACK 41 AUDIO
    TITLE "2:cjc091_2086"
    INDEX 01 00:54:30
  TRACK 42 AUDIO
    TITLE "0:"
    INDEX 01 00:55:73
  TRACK 43 AUDIO
    TITLE "3:cjc091_2087"
    INDEX 01 00:56:14
  TRACK 44 AUDIO
    TITLE "0:"
    INDEX 01 00:58:15
  TRACK 45 AUDIO
    TITLE "4:cjc091_2088"
    INDEX 01 00:58:34
  TRACK 46 AUDIO
    TITLE "0:"
    INDEX 01 01:01:07
  TRACK 47 AUDIO
    TITLE "2:cjc091_2089"
    INDEX 01 01:02:16
  TRACK 48 AUDIO
    TITLE "0:"
    INDEX 01 01:03:43
  TRACK 49 AUDIO
    TITLE "3:cjc091_2090"
    INDEX 01 01:03:49
  TRACK 50 AUDIO
    TITLE "0:"
    INDEX 01 01:04:70
  TRACK 51 AUDIO
    TITLE "4:cjc091_2091"
    INDEX 01 01:05:11
  TRACK 52 AUDIO
    TITLE "0:"
    INDEX 01 01:08:25
  TRACK 53 AUDIO
    TITLE "2:cjc091_2092"
    INDEX 01 01:09:32
  TRACK 54 AUDIO
    TITLE "0:"
    INDEX 01 01:10:57
  TRACK 55 AUDIO
    TITLE "3:cjc091_2093"
    INDEX 01 01:10:65
  TRACK 56 AUDIO
    TITLE "0:"
    INDEX 01 01:12:42
  TRACK 57 AUDIO
    TITLE "4:cjc091_2094"
    INDEX 01 01:12:60
  TRACK 58 AUDIO
    TITLE "0:"
    INDEX 01 01:16:22
  TRACK 59 AUDIO
    TITLE "2:cjc091_2095"
    INDEX 01 01:17:30
  TRACK 60 AUDIO
    TITLE "0:"
    INDEX 01 01:18:39
  TRACK 61 AUDIO
    TITLE "3:cjc091_2096"
    INDEX 01 01:18:58
  TRACK 62 AUDIO
    TITLE "0:"
    INDEX 01 01:21:00
  TRACK 63 AUDIO
    TITLE "4:cjc091_2097"
    INDEX 01 01:21:16
  TRACK 64 AUDIO
    TITLE "0:"
    INDEX 01 01:24:73
  TRACK 65 AUDIO
    TITLE "2:cjc091_2098"
    INDEX 01 01:26:07
  TRACK 66 AUDIO
    TITLE "0:"
    INDEX 01 01:28:00
  TRACK 67 AUDIO
    TITLE "3:cjc091_2099"
    INDEX 01 01:28:12
  TRACK 68 AUDIO
    TITLE "0:"
    INDEX 01 01:30:01
  TRACK 69 AUDIO
    TITLE "4:cjc091_2100"
    INDEX 01 01:30:15
  TRACK 70 AUDIO
    TITLE "0:"
    INDEX 01 01:33:52
  TRACK 71 AUDIO
    TITLE "2:cjc091_2101"
    INDEX 01 01:34:61
  TRACK 72 AUDIO
    TITLE "0:"
    INDEX 01 01:36:25
  TRACK 73 AUDIO
    TITLE "3:cjc091_2102"
    INDEX 01 01:36:39
  TRACK 74 AUDIO
    TITLE "0:"
    INDEX 01 01:39:00
  TRACK 75 AUDIO
    TITLE "4:cjc091_2103"
    INDEX 01 01:39:15
  TRACK 76 AUDIO
    TITLE "0:"
    INDEX 01 01:42:12
  TRACK 77 AUDIO
    TITLE "2:cjc091_2104"
    INDEX 01 01:43:21
  TRACK 78 AUDIO
    TITLE "0:"
    INDEX 01 01:44:66
  TRACK 79 AUDIO
    TITLE "3:cjc091_2105"
    INDEX 01 01:45:08
  TRACK 80 AUDIO
    TITLE "0:"
    INDEX 01 01:47:01
  TRACK 81 AUDIO
    TITLE "4:cjc091_2106"
    INDEX 01 01:47:17
  TRACK 82 AUDIO
    TITLE "0:"
    INDEX 01 01:52:12
  TRACK 83 AUDIO
    TITLE "2:cjc091_2107"
    INDEX 01 01:53:12
  TRACK 84 AUDIO
    TITLE "0:"
    INDEX 01 01:54:27
  TRACK 85 AUDIO
    TITLE "3:cjc091_2108"
    INDEX 01 01:54:44
  TRACK 86 AUDIO
    TITLE "0:"
    INDEX 01 01:56:10
  TRACK 87 AUDIO
    TITLE "4:cjc091_2109"
    INDEX 01 01:56:26
  TRACK 88 AUDIO
    TITLE "0:"
    INDEX 01 02:00:29
  TRACK 89 AUDIO
    TITLE "2:cjc091_2110"
    INDEX 01 02:01:33
  TRACK 90 AUDIO
    TITLE "0:"
    INDEX 01 02:02:32
  TRACK 91 AUDIO
    TITLE "3:cjc091_2111"
    INDEX 01 02:02:56
  TRACK 92 AUDIO
    TITLE "0:"
    INDEX 01 02:04:12
  TRACK 93 AUDIO
    TITLE "4:cjc091_2112"
    INDEX 01 02:04:31
  TRACK 94 AUDIO
    TITLE "0:"
    INDEX 01 02:07:29
